<?xml version="1.0" encoding="UTF-8" standalone="no"?>
<!-- Created with Inkscape (http://www.inkscape.org/) -->

<svg
   width="131.83907mm"
   height="131.8192mm"
   viewBox="0 0 131.83906 131.8192"
   version="1.1"
   id="svg1"
   xml:space="preserve"
   xmlns="http://www.w3.org/2000/svg"
   xmlns:svg="http://www.w3.org/2000/svg"><defs
     id="defs1" /><g
     id="layer1"
     transform="translate(-151.08443,-113.49958)"><ellipse
       style="fill:#fdfff6;fill-opacity:1;stroke-width:0.278862"
       id="path2"
       ry="60.941902"
       rx="60.941906"
       cy="180.37207"
       cx="219.3981" /></g><g
     id="layer2"
     transform="translate(-0.33775035,-0.31044468)"><path
       style="fill:#222222;fill-opacity:1"
       d="M 59.191474,131.95636 C 39.425918,129.71736 21.664868,118.77496 10.893147,102.20026 5.788968,94.346363 2.4618279,85.587814 0.94289783,76.006652 0.34546806,72.23817 0.14411806,63.947104 0.54956803,59.810359 2.5082879,39.825561 13.538948,21.717576 30.453358,10.72017 c 7.69189,-5.0011013 16.476,-8.3180315 26.19375,-9.89090857 4.248536,-0.68765067 14.923164,-0.69275667 19.314587,-0.0092 13.999916,2.17906377 26.840015,8.58787917 36.666585,18.30121257 5.58347,5.519141 9.37201,10.761116 12.81191,17.727083 3.26337,6.608479 4.78135,11.268267 6.11958,18.785417 0.53497,3.005023 0.61292,4.308704 0.61698,10.31875 0.005,7.514586 -0.26826,10.063936 -1.71053,15.953571 -3.46017,14.129869 -11.3756,26.624835 -22.60396,35.681635 -9.215591,7.4333 -19.638871,11.98201 -32.079667,13.99954 -3.055625,0.49554 -13.43637,0.72649 -16.591119,0.36913 z m -0.654167,-21.95751 c 6.131241,-0.60684 10.526369,-1.79179 14.778555,-3.98437 5.993419,-3.09043 10.449968,-7.803088 13.615063,-14.397502 1.602325,-3.338409 1.802097,-3.989286 8.762666,-28.54988 3.426905,-12.091996 6.527599,-22.64029 6.890419,-23.440655 0.81286,-1.79309 1.53247,-2.563134 4.06935,-4.354509 1.09141,-0.770678 2.24659,-1.685394 2.56706,-2.032702 0.86681,-0.939379 1.45865,-2.540741 1.26495,-3.422628 -0.20697,-0.942355 -1.41619,-1.988429 -2.71574,-2.349351 -1.43069,-0.397341 -39.91037,-0.37556 -41.495134,0.02349 -2.31615,0.583213 -3.592885,2.815333 -2.63146,4.60059 0.250858,0.465816 1.360745,1.548105 2.466415,2.405087 3.121596,2.419485 3.674911,2.946719 4.155623,3.959745 0.95569,2.013967 0.848971,2.46853 -6.59955,28.110303 -3.860253,13.289029 -7.388796,25.05097 -7.841216,26.137714 -1.76795,4.246786 -3.92891,6.188797 -6.88652,6.188797 -1.29582,0 -3.93234,-0.646917 -3.93234,-0.964867 0,-0.0668 0.69512,-0.764934 1.54471,-1.551501 2.4078,-2.229185 3.76661,-5.15735 4.26887,-9.199166 1.11711,-8.989709 -4.47013,-15.028794 -12.92368,-13.968807 -8.07379,1.012368 -13.26282,7.438193 -13.26282,16.423982 0,3.032582 0.35319,4.664033 1.57516,7.275998 1.96457,4.199272 4.85932,7.094542 9.47868,9.480342 6.10519,3.15321 14.33284,4.45298 22.850939,3.60989 z"
       id="path3" /></g></svg>
