<?xml version="1.0" encoding="UTF-8" standalone="no"?>
<!-- Created with Inkscape (http://www.inkscape.org/) -->

<svg
   width="131.88571mm"
   height="132.21967mm"
   viewBox="0 0 131.88571 132.21966"
   version="1.1"
   id="svg1"
   xml:space="preserve"
   xmlns="http://www.w3.org/2000/svg"
   xmlns:svg="http://www.w3.org/2000/svg"><defs
     id="defs1" /><g
     id="layer1"
     transform="translate(-151.09299,-113.09766)"><ellipse
       style="fill:#fdfff6;fill-opacity:1;stroke-width:0.278862"
       id="path2"
       ry="60.941902"
       rx="60.941906"
       cy="180.37207"
       cx="219.3981" /></g><g
     id="layer2"
     transform="translate(-0.34631439,0.09147507)"><path
       style="fill:#222222;fill-opacity:1"
       d="M 62.249601,131.97387 C 47.654464,130.7637 35.348054,125.95339 24.546474,117.23656 23.455068,116.3558 21.073817,114.14164 19.254807,112.3162 9.3801017,102.40663 2.9565915,89.422969 0.83488158,75.084526 0.18694161,70.705774 0.18267161,61.208251 0.82688158,57.008911 2.4433215,46.469999 5.6819017,37.915011 11.214842,29.56816 22.555161,12.46044 40.51544,1.882197 61.191377,0.13298006 71.751127,-0.76039092 82.399328,1.01885 92.516618,5.367211 c 19.362002,8.321679 33.721472,25.631215 38.231152,46.08545 1.08892,4.93895 1.48426,8.814961 1.48426,14.552083 0,10.797254 -2.00981,19.610497 -6.60688,28.971876 -7.41848,15.10683 -19.74405,26.46642 -35.329143,32.5603 -8.745412,3.41951 -19.602329,5.13709 -28.046296,4.43695 z m 4.497916,-29.14652 c 5.411581,-1.17854 9.285556,-3.148027 12.767547,-6.490874 2.599157,-2.495295 4.761923,-5.615373 6.192363,-8.933308 0.597018,-1.384795 3.052488,-9.528154 5.916594,-19.621888 6.800719,-23.967209 6.413792,-22.859036 8.514589,-24.386106 0.60989,-0.44333 1.66219,-1.205202 2.33842,-1.693048 1.24248,-0.896338 1.97364,-2.124166 1.97364,-3.314322 0,-0.807665 -1.29115,-1.938552 -2.4552,-2.150456 -0.46866,-0.08532 -8.392645,-0.119818 -17.608845,-0.07667 l -16.756727,0.07844 -0.771919,0.86407 c -0.572547,0.640897 -0.77192,1.129982 -0.77192,1.893612 0,0.92253 0.154742,1.162731 1.48874,2.31093 0.818807,0.704764 2.116773,1.876701 2.88437,2.604305 2.350537,2.228073 2.601283,0.750583 -3.962402,23.347964 -6.063404,20.875018 -6.577612,22.474729 -7.873247,24.493801 -1.470829,2.292089 -3.042687,2.933978 -5.972567,2.438978 -0.946227,-0.159864 -2.151847,-0.93595 -1.453963,-0.93595 0.141336,0 0.79759,-0.548344 1.458343,-1.218542 3.870452,-3.925784 4.433244,-11.565676 1.147378,-15.575643 -1.707453,-2.083721 -4.017939,-3.040536 -7.356408,-3.046425 -7.386171,-0.01303 -12.97846,7.186262 -11.855234,15.261957 0.4591,3.300808 1.716031,5.865834 4.037045,8.238421 3.213037,3.284424 7.492181,5.267274 13.567319,6.286754 3.101536,0.52047 11.422987,0.30546 14.552084,-0.376 z"
       id="path4" /></g></svg>
