<?xml version="1.0" encoding="UTF-8" standalone="no"?>
<!-- Created with Inkscape (http://www.inkscape.org/) -->

<svg
   width="131.97218mm"
   height="131.80905mm"
   viewBox="0 0 131.97218 131.80905"
   version="1.1"
   id="svg1"
   xml:space="preserve"
   xmlns="http://www.w3.org/2000/svg"
   xmlns:svg="http://www.w3.org/2000/svg"><defs
     id="defs1" /><g
     id="layer1"
     transform="translate(-150.74668,-113.18914)"><ellipse
       style="fill:#fdfff6;fill-opacity:1;stroke-width:0.278862"
       id="path2"
       ry="60.941902"
       rx="60.941906"
       cy="180.37207"
       cx="219.3981" /></g><g
     id="layer2"><path
       style="fill:#222222;fill-opacity:1"
       d="m 207.8432,244.5487 c -10.6529,-1.61849 -19.39943,-4.9634 -28.04583,-10.72549 -4.93963,-3.29184 -10.9322,-8.84113 -14.71437,-13.62589 -6.79687,-8.59863 -11.68516,-19.56856 -13.44065,-30.1625 -3.0627,-18.48263 1.80175,-37.3076 13.47888,-52.16194 2.12565,-2.70402 8.55941,-9.06453 11.10427,-10.97785 8.50673,-6.39567 17.69391,-10.65011 26.9875,-12.49749 5.67259,-1.1276 6.77679,-1.22444 13.75833,-1.20663 5.86245,0.015 7.36797,0.10377 10.18646,0.60089 12.6472,2.23068 22.91188,6.93698 32.27916,14.79983 10.32314,8.66517 17.96873,20.80141 21.31155,33.82891 1.46376,5.70448 1.9687,9.94805 1.97035,16.55883 0.002,6.19678 -0.3371,9.5472 -1.48901,14.73149 -3.17412,14.2854 -11.45025,27.52824 -22.98351,36.77646 -9.16655,7.35041 -18.88186,11.67707 -31.00291,13.80697 -4.64992,0.81708 -14.81897,0.95043 -19.40022,0.25441 z m -0.66145,-15.3582 c 7.8993,-0.72412 14.09502,-2.7211 19.57067,-6.30792 2.50662,-1.64196 6.81575,-6.01348 8.6455,-8.77068 1.87178,-2.82053 3.62194,-6.31076 4.70993,-9.39271 0.88618,-2.51026 3.32427,-10.94453 10.32519,-35.71875 2.34398,-8.29468 4.55887,-15.86817 4.92197,-16.82997 0.85452,-2.26348 1.93761,-3.49689 4.74563,-5.4042 1.25676,-0.85363 2.62857,-1.94336 3.04849,-2.42162 0.84875,-0.96667 1.43432,-2.74596 1.20474,-3.66067 -0.21427,-0.8537 -1.82114,-2.1726 -3.05019,-2.50355 -0.71729,-0.19315 -8.16863,-0.25964 -23.48524,-0.20957 -22.08745,0.0722 -22.44893,0.0817 -23.35975,0.61681 -1.91872,1.12714 -2.63419,3.25732 -1.65455,4.92614 0.25466,0.43382 1.59913,1.66052 2.98772,2.72601 4.30472,3.3031 5.05206,4.51994 4.68602,7.62986 -0.16918,1.43732 -15.09098,52.86306 -16.1092,55.51794 -1.42236,3.7086 -3.58111,6.4604 -5.70416,7.2712 -1.3567,0.51813 -3.86866,0.37911 -5.58921,-0.30932 l -1.08845,-0.43551 1.96296,-1.90646 c 3.17909,-3.0876 4.6721,-7.00893 4.69494,-12.33104 0.0364,-8.47481 -5.26454,-13.67893 -13.37111,-13.12697 -6.15919,0.41937 -10.91948,3.57885 -13.54734,8.99157 -1.47064,3.02913 -2.041,5.58506 -2.04463,9.16248 -0.004,4.05323 0.67863,6.52194 2.81716,10.18644 5.1501,8.82502 19.0026,13.73789 34.68291,12.30049 z"
       id="path1"
       transform="translate(-150.74668,-113.18914)" /></g></svg>
