<?xml version="1.0" encoding="UTF-8" standalone="no"?>
<!-- Created with Inkscape (http://www.inkscape.org/) -->

<svg
   version="1.1"
   id="svg1"
   width="499.33804"
   height="498.48517"
   viewBox="0 0 499.33804 498.48517"
   xml:space="preserve"
   xmlns="http://www.w3.org/2000/svg"
   xmlns:svg="http://www.w3.org/2000/svg"><defs
     id="defs1" /><g
     id="g1"
     transform="translate(158.33751,105.43476)"><circle
       style="fill:#fff6e9;fill-opacity:1;stroke-width:1.00157;stroke-dasharray:none"
       id="path3"
       cx="89.776237"
       cy="142.05707"
       r="248.08698" /></g><g
     id="layer1"
     transform="translate(-2.2492533,-16.527336)"><path
       style="fill:#3d3b3a;fill-opacity:1;stroke-width:1.00157;stroke-dasharray:none"
       d="m 225.29497,514.10395 c -45.6437,-5.24979 -87.49877,-21.86077 -124.23192,-49.30379 -13.012111,-9.72123 -36.209681,-32.60764 -46.248621,-45.62825 -22.93081,-29.74153 -39.23041,-64.30079 -46.92841,-99.5 -7.5215166,-34.39225 -7.5154166,-73.84923 0.0167,-108 C 23.412169,141.35188 69.705569,80.2366 133.4783,45.890487 c 25.29161,-13.62131 49.23227,-21.792469 78.81666,-26.900824 17.69936,-3.056158 58.95291,-3.322324 76.00004,-0.490349 30.9243,5.13736 51.7782,11.973293 78.1045,25.60272 25.3214,13.109208 45.3569,27.97391 64.5826,47.915126 86.3252,89.53794 94.3968,226.16163 19.2197,325.32556 -10.149,13.38727 -34.1726,37.41336 -46.9467,46.95153 -37.6955,28.1465 -79.9604,44.90546 -125.67073,49.83124 -11.06665,1.19255 -41.84384,1.17987 -52.28941,-0.0215 z m 60.00003,-7.47428 c 56.6237,-7.34155 112.1149,-37.58857 150.4492,-82.00649 30.2288,-35.02617 48.9171,-75.52445 56.737,-122.95127 2.5667,-15.56657 2.5557,-56.28166 -0.02,-72 C 480.9532,159.42931 443.0364,100.50834 384.6227,62.096 370.8489,53.03845 350.8157,42.910933 336.0656,37.548539 321.9714,32.424584 297.1094,26.263336 283.83258,24.604235 269.10586,22.763955 234.74323,22.752996 220.29457,24.583975 127.93056,36.288616 49.204509,101.81414 20.406119,190.95581 c -8.83705,27.35391 -11.11932,42.94764 -11.08169,75.7161 0.0315,27.43727 0.64214,33.1569 5.97857,56 14.25452,61.01783 54.47422,116.43717 109.082271,150.30615 31.14168,19.31468 71.62596,32.5269 107.90931,35.21665 13.85275,1.02693 38.65814,0.29445 53.00002,-1.56504 z m -41.50002,-0.18433 C 135.07348,502.65563 42.293649,426.7421 17.357919,321.17191 c -4.71955,-19.98113 -6.00184,-31.87739 -5.9823,-55.5 0.0334,-40.35167 7.3672,-71.89049 24.97232,-107.39267 25.51469,-51.45243 69.746601,-93.092173 121.610861,-114.483989 29.43998,-12.142747 54.76032,-17.456414 87.33618,-18.32816 35.21425,-0.94235 65.38112,4.374039 97.50002,17.182692 53.6635,21.400431 98.7132,63.378507 124.5061,116.016797 12.1226,24.73991 18.3946,44.35538 22.704,71.00533 2.5698,15.89255 3.0693,51.50949 0.9255,66 -4.28,28.92942 -11.316,52.12137 -23.0571,76 -12.201,24.81419 -26.2803,44.74162 -44.5478,63.05177 -34.6401,34.72084 -76.4212,57.35515 -123.5307,66.92094 -17.08693,3.46957 -39.37464,5.38023 -56.00002,4.80072 z M 298.2651,405.21402 c 29.6178,-8.11951 55.1952,-31.04975 65.2416,-58.48927 4.5835,-12.519 6.3432,-29.50529 4.376,-42.24046 -4.1722,-27.00919 -18.8321,-49.23614 -41.6663,-63.17319 -10.9719,-6.69683 -27.2977,-11.13919 -40.9368,-11.13919 -6.73787,0 -7.50936,0.21598 -9.41205,2.63486 -2.80332,3.56384 -2.66043,3.9204 1.67742,4.18583 25.34863,1.55106 47.34863,16.59174 59.16593,40.44981 5.9796,12.07246 8.6944,21.99311 10.1015,36.91453 1.9211,20.37165 -1.909,41.67716 -10.1529,56.47692 -4.3844,7.87091 -16.8078,20.08978 -24.5506,24.14625 -17.9257,9.39141 -42.80777,9.53368 -61.0029,0.34881 -20.62206,-10.40999 -35.03435,-29.86719 -41.7537,-56.36929 l -2.20892,-8.71229 -6.4242,9.16393 c -11.11038,15.8486 -10.27103,13.78329 -7.87808,19.38469 5.05257,11.82702 15.07537,24.29966 26.22395,32.63378 10.86012,8.11848 21.35801,12.73169 34.72993,15.26179 11.17162,2.11379 34.15552,1.35015 44.47012,-1.47751 z M 171.39427,368.92191 c 13.61162,-19.3875 26.32287,-37.5 28.24722,-40.25 1.92434,-2.75 16.15433,-23 31.62219,-45 15.46785,-22 30.16889,-42.925 32.66898,-46.5 2.50008,-3.575 15.86686,-22.61595 29.70394,-42.31321 13.8371,-19.69727 25.1584,-36.17967 25.1584,-36.62756 0,-0.44788 -0.6996,-1.39489 -1.5546,-2.10447 -1.918,-1.59187 -3.1277,-0.43539 -9.9843,9.54525 -2.6449,3.85 -16.501,23.65 -30.79128,43.99999 -14.29028,20.35 -28.02616,39.925 -30.52419,43.5 -5.64513,8.07891 -14.91856,21.28947 -52.29685,74.5 -16.22683,23.1 -31.22699,44.475 -33.33369,47.5 -2.1067,3.025 -6.90944,9.85889 -10.67274,15.18642 -3.76331,5.32753 -6.84238,10.14267 -6.84238,10.70031 0,0.77822 2.50598,2.88017 3.67545,3.08286 0.0965,0.0167 11.31223,-15.83209 24.92385,-35.21959 z m -9.65099,-8.6774 c 2.0802,-2.92137 2.08034,-2.92873 0.0702,-3.56671 -1.10784,-0.35162 -3.31742,-2.52178 -4.91017,-4.82259 -5.11857,-7.39404 -7.68286,-9.1833 -13.16116,-9.1833 -6.35792,0 -9.40176,2.73996 -9.40176,8.46311 0,3.0117 0.70001,4.68367 2.93971,7.02141 3.58304,3.73989 6.9862,4.80773 15.69674,4.92529 6.29184,0.0849 6.80359,-0.0807 8.7664,-2.83721 z m 42.0449,-139.37978 c 0.005,-56.58926 0.33977,-81.12955 1.15134,-84.35259 1.4419,-5.72631 4.72617,-7.8792 13.44406,-8.8128 4.55042,-0.48731 6.41139,-1.09889 6.41139,-2.10701 0,-1.19894 -5.2232,-1.42041 -33.5,-1.42041 -28.21316,0 -33.5,0.22326 -33.5,1.41468 0,1.04118 2.04615,1.58872 7.75,2.07386 11.45556,0.97435 15.40861,2.45881 17.49845,6.57101 1.62809,3.20364 1.74855,9.97034 1.75,98.30725 l 8.2e-4,48.51678 7.8e-4,46.35002 9.49321,-13.3668 9.49321,-13.36681 z"
       id="path1" /></g></svg>
