<?xml version="1.0" encoding="UTF-8" standalone="no"?>
<!-- Created with Inkscape (http://www.inkscape.org/) -->

<svg
   width="131.93513mm"
   height="131.98247mm"
   viewBox="0 0 131.93513 131.98247"
   version="1.1"
   id="svg1"
   xml:space="preserve"
   xmlns="http://www.w3.org/2000/svg"
   xmlns:svg="http://www.w3.org/2000/svg"><defs
     id="defs1" /><g
     id="layer1"
     transform="translate(-150.66692,-113.40975)"><ellipse
       style="fill:#fdfff6;fill-opacity:1;stroke-width:0.278862"
       id="path2"
       ry="60.941902"
       rx="60.941906"
       cy="180.37207"
       cx="219.3981" /></g><g
     id="layer2"
     transform="translate(0.07976434,-0.22061493)"><path
       style="fill:#222222;fill-opacity:1"
       d="m 61.396341,132.06557 c -8.133472,-0.5245 -17.230422,-3.0001 -24.781022,-6.74376 C 19.540409,116.85589 7.1796569,101.84716 2.1454668,83.467671 0.37304681,76.996706 -0.25851316,71.397655 -0.03735316,64.11606 0.16578681,57.427545 0.72950678,53.809043 2.5779767,47.328417 7.4036269,30.410013 20.039609,15.29959 36.095609,7.2472073 45.981859,2.2890626 54.829133,0.21759295 66.106246,0.22061825 c 10.930912,0.00293 19.940661,2.14687535 29.685927,7.06400715 6.439287,3.2490406 11.414497,6.8631446 16.678237,12.1154516 10.93596,10.912219 17.2788,24.046398 19.07673,39.502366 0.51008,4.384942 0.36732,13.04441 -0.28223,17.119867 -2.57976,16.185977 -10.46279,30.20843 -22.90277,40.73978 -12.810285,10.84483 -29.875971,16.40557 -46.965799,15.30348 z m 2.910417,-30.09419 c 6.509722,-1.77762 11.967026,-7.021733 14.338361,-13.778236 l 0.742888,-2.116667 0.132292,-23.547917 c 0.119177,-21.213581 0.175506,-23.626664 0.568224,-24.342291 0.958305,-1.746262 2.126195,-2.295999 6.267162,-2.950012 l 2.954197,-0.466578 V 32.972557 31.175435 H 73.964049 58.618216 v 1.821645 1.821646 l 2.108221,0.308262 c 4.088916,0.597879 6.760151,2.007131 7.690885,4.057449 0.487103,1.073039 0.508262,1.981413 0.513833,22.059318 0.0036,12.810586 -0.102454,22.003951 -0.273057,23.680209 -0.732227,7.194488 -2.665685,11.213882 -6.222492,12.935703 -3.844233,1.860956 -9.513647,1.029937 -12.641217,-1.852953 l -1.19052,-1.097382 0.39547,-0.946474 c 0.2175,-0.520561 0.85518,-1.674516 1.41707,-2.564344 3.05163,-4.832709 3.883634,-8.292237 2.58437,-10.745995 -1.27757,-2.412785 -4.64822,-3.708408 -7.58815,-2.916765 -1.52432,0.410454 -3.49924,2.280914 -4.27708,4.050831 -1.315,2.992213 -0.8819,8.422883 0.97402,12.213163 1.94244,3.966978 6.42116,7.179882 11.481033,8.236152 2.296853,0.47948 8.557528,0.32494 10.716156,-0.26452 z"
       id="path5" /></g></svg>
