<?xml version="1.0" encoding="UTF-8" standalone="no"?>
<!-- Created with Inkscape (http://www.inkscape.org/) -->

<svg
   width="132.0802mm"
   height="131.71933mm"
   viewBox="0 0 132.0802 131.71933"
   version="1.1"
   id="svg1"
   xml:space="preserve"
   xmlns="http://www.w3.org/2000/svg"
   xmlns:svg="http://www.w3.org/2000/svg"><defs
     id="defs1" /><g
     id="layer1"
     transform="translate(-6.8791599,-93.313759)"><rect
       style="fill:#ffffff;fill-opacity:1;stroke:none;stroke-width:0.7;stroke-dasharray:none;stroke-opacity:1"
       id="rect2"
       width="132.0802"
       height="131.71931"
       x="6.8791599"
       y="93.313759" /><path
       style="fill:#000000;fill-opacity:1;stroke:none;stroke-width:0.881161;stroke-dasharray:none;stroke-opacity:1"
       d="m 73.252392,221.33264 c -5.551147,-0.90547 -11.874269,-3.54759 -20.045612,-8.3761 -2.14078,-1.265 -5.363109,-3.00576 -7.16074,-3.86836 -3.226559,-1.54827 -3.311112,-1.56832 -6.599012,-1.5644 -3.572263,0.004 -5.724197,0.65665 -7.43935,2.25537 -1.721083,1.60426 -3.051976,5.58159 -3.051976,9.12074 v 1.43758 H 26.820725 24.685748 L 24.4429,217.42322 c -0.369722,-4.43657 0.05111,-13.08772 0.810529,-16.66196 2.38821,-11.24046 7.46488,-18.5774 15.525825,-22.43835 4.068256,-1.94855 7.238256,-2.66368 12.6562,-2.85509 11.878524,-0.41967 22.436252,3.22326 34.971065,12.06673 6.228736,4.39444 11.639841,7.8146 13.738391,8.6835 1.90218,0.78763 2.7356,0.93412 5.41244,0.95143 1.84387,0.0114 3.68869,-0.16517 4.42146,-0.42447 2.91414,-1.03118 4.55124,-3.48613 4.56376,-6.84369 0.01,-2.82839 -0.57799,-4.39282 -2.40441,-6.39122 -1.75671,-1.92213 -5.075,-3.78284 -12.92449,-7.24732 -9.672284,-4.26899 -14.70828,-8.15677 -17.247797,-13.31525 -2.067595,-4.19988 -2.041826,-3.74144 -2.048196,-36.44909 l -0.0063,-29.72542 h 19.983473 19.98345 v 43.81024 c 0,28.96737 -0.12098,44.89553 -0.35719,47.0136 -1.70185,15.26233 -10.188,26.07339 -24.468875,31.1725 -5.147426,1.83792 -9.869517,2.64463 -16.140031,2.75732 -3.205688,0.0576 -6.65284,-0.0296 -7.660333,-0.19404 z"
       id="path1" /></g></svg>
