<?xml version="1.0" encoding="UTF-8" standalone="no"?>
<!-- Created with Inkscape (http://www.inkscape.org/) -->

<svg
   width="92.491806mm"
   height="118.27565mm"
   viewBox="0 0 92.491802 118.27565"
   version="1.1"
   id="svg1"
   xml:space="preserve"
   inkscape:export-filename="bitmap.svg"
   inkscape:export-xdpi="96"
   inkscape:export-ydpi="96"
   xmlns:inkscape="http://www.inkscape.org/namespaces/inkscape"
   xmlns:sodipodi="http://sodipodi.sourceforge.net/DTD/sodipodi-0.dtd"
   xmlns="http://www.w3.org/2000/svg"
   xmlns:svg="http://www.w3.org/2000/svg"><sodipodi:namedview
     id="namedview1"
     pagecolor="#ffffff"
     bordercolor="#000000"
     borderopacity="0.25"
     inkscape:showpageshadow="2"
     inkscape:pageopacity="0.0"
     inkscape:pagecheckerboard="0"
     inkscape:deskcolor="#d1d1d1"
     inkscape:document-units="mm"><inkscape:page
       x="0"
       y="-2.0080242e-14"
       width="92.491806"
       height="118.27566"
       id="page2"
       margin="0"
       bleed="0" /></sodipodi:namedview><defs
     id="defs1" /><g
     inkscape:label="Layer 1"
     inkscape:groupmode="layer"
     id="layer1"
     transform="translate(-25.259109,-98.433393)"><path
       style="fill:#ffffff;fill-opacity:1;stroke:none;stroke-width:0.835287;stroke-dasharray:none;stroke-opacity:1"
       d="m 71.656568,216.50828 c -5.262148,-0.85833 -11.256081,-3.3629 -19.002014,-7.94003 -2.029328,-1.19914 -5.083899,-2.84927 -6.787943,-3.66697 -3.058581,-1.46766 -3.138732,-1.48667 -6.25546,-1.48295 -3.386287,0.004 -5.426188,0.62246 -7.052049,2.13795 -1.631481,1.52074 -2.893086,5.29101 -2.893086,8.6459 v 1.36274 h -2.023828 -2.023827 l -0.230205,-2.76253 c -0.350474,-4.2056 0.04845,-12.40636 0.768332,-15.79452 2.263877,-10.65527 7.076249,-17.61024 14.717532,-21.27018 3.856458,-1.84711 6.861424,-2.52501 11.997303,-2.70645 11.260114,-0.39782 21.268194,3.05545 33.15043,11.43852 5.90446,4.16566 11.03386,7.40776 13.023141,8.23143 1.803156,0.74662 2.593186,0.88549 5.130666,0.9019 1.74788,0.0108 3.49665,-0.15658 4.19127,-0.40238 2.76243,-0.97749 4.3143,-3.30463 4.32617,-6.4874 0.009,-2.68114 -0.5479,-4.16412 -2.27923,-6.05848 -1.66526,-1.82206 -4.81079,-3.5859 -12.25163,-6.87002 -9.168725,-4.04674 -13.942541,-7.73212 -16.349848,-12.62204 -1.959953,-3.98123 -1.935526,-3.54666 -1.941564,-34.55151 l -0.006,-28.177867 h 18.943103 18.943089 v 41.529417 c 0,27.4593 -0.11469,42.55822 -0.3386,44.56602 -1.61325,14.46775 -9.6576,24.71598 -23.194985,29.54962 -4.879445,1.74224 -9.355698,2.50695 -15.299762,2.61377 -3.038796,0.0546 -6.306485,-0.0281 -7.261527,-0.18394 z"
       id="path1" /></g></svg>
